<?xml version="1.0" encoding="UTF-8"?>
<svg xmlns="http://www.w3.org/2000/svg" width="512" height="512" viewBox="0 0 512 512" role="img" aria-label="PlantPal">
  <rect width="512" height="512" fill="#2D6A4F"/>
  <g transform="translate(256 262) scale(1.22) translate(-256 -262)">
    <!-- Stem -->
    <rect x="146" y="98" width="54" height="318" rx="27" fill="#FFFFFF"/>
    <!-- Pointed leaf bowl + P counter -->
    <path fill="#FFFFFF" fill-rule="evenodd" d="
      M 200 98
      C 262 76 346 78 394 136
      C 422 178 408 262 346 312
      C 296 348 236 342 200 302
      L 200 98
      Z
      M 228 128
      C 282 112 324 140 328 188
      C 332 234 292 272 244 272
      C 216 272 200 248 200 218
      C 200 178 208 142 228 128
      Z
    "/>
  </g>
</svg>